<svg width="500" height="80" xmlns="http://www.w3.org/2000/svg" viewBox="0 0 500 80">
      <!-- Dibuja los puntos -->
      <circle cx="30" cy="10" r="5" fill="white" />
      <circle cx="60" cy="10" r="5" fill="white" />
      <circle cx="90" cy="10" r="5" fill="white" />
      <circle cx="120" cy="10" r="5" fill="white" />
      <circle cx="150" cy="10" r="5" fill="white" />
      <circle cx="180" cy="10" r="5" fill="white" />
      <circle cx="210" cy="10" r="5" fill="white" />

      <circle cx="30" cy="30" r="5" fill="white" />
      <circle cx="60" cy="30" r="5" fill="white" />
      <circle cx="90" cy="30" r="5" fill="white" />
      <circle cx="120" cy="30" r="5" fill="white" />
      <circle cx="150" cy="30" r="5" fill="white" />
      <circle cx="180" cy="30" r="5" fill="white" />
      <circle cx="210" cy="30" r="5" fill="white" />

      <circle cx="30" cy="50" r="5" fill="white" />
      <circle cx="60" cy="50" r="5" fill="white" />
      <circle cx="90" cy="50" r="5" fill="white" />
      <circle cx="120" cy="50" r="5" fill="white" />
      <circle cx="150" cy="50" r="5" fill="white" />
      <circle cx="180" cy="50" r="5" fill="white" />
      <circle cx="210" cy="50" r="5" fill="white" />

      <circle cx="30" cy="70" r="5" fill="white" />
      <circle cx="60" cy="70" r="5" fill="white" />
      <circle cx="90" cy="70" r="5" fill="white" />
      <circle cx="120" cy="70" r="5" fill="white" />
      <circle cx="150" cy="70" r="5" fill="white" />
      <circle cx="180" cy="70" r="5" fill="white" />
      <circle cx="210" cy="70" r="5" fill="white" />
    </svg>